<svg viewBox="0 0 1024 125" xmlns="http://www.w3.org/2000/svg" fill-rule="evenodd" clip-rule="evenodd" stroke-linecap="round" stroke-linejoin="round" stroke-miterlimit="1.5"><path d="M1024 112.731h-13.96v-7.807h-17.534V86.443l-5.408-5.409h-38.229l-2.752 2.753v27.222H921.49v-5.476h-8.648v5.344h-9.348l-9.838 6.752V98.455l-5.494-5.494-6.133 6.133h-13.523V86.065h-19.041v-3.46h-6.684v4.134h-18.996l-2.087-2.087h-2.999l-2.093 2.093h-8.105v8.415h-2.755l-4.198-4.198V75.69h-12.307v-3.067h-12.019v3.14h-5.369l-3.986 3.985v35.435c-4.668-3.028-9.84-4.941-15.706-5.323l-1.618-13.089-1.377 13.235-5.053.183V79.886l-4.917-13.987V55.053h-31.239l-1.797 10.516v9.952h-3.644v16.754l-7.561 6.561v18.191h-15.097v6.939h-9.411v-1.76h-5.451v-18.379h-9.039l-2.188-2.187h-4.958v-9.309 9.309l-2.262 2.262h-5.75l-2.247 2v8.904l-14.756-.07V73.065l2.237-.448V50.164h-24.12l-3.399 3v59.282h-23.12v-10.723l-7.028-7.029h-16.59V77.248l-1.587-10.157.113-4.705-4.122-14.717.313-13.106-2.986-25.562-1.175 25.562H526.77l-2.724-25.562-2.21 25.562-1.153 25.276-1.824 1.489-.456 8.645-2.117 8.592.184 34.615-.184-.18h-9.938V84.273l-6.637-13.583-.167-8.19-2.623-2.585-19.006-.493-4.336 3.078v9.171h-3.104V55.36h-2.893l-2.07-3h-9.254l-3.068 3h-8.637v-8.099h-6.47l-2.16 2.159h-6.855l-2.199-4.663-6.353.006-.376-22.279-.634 22.279-2.179.002-.988 2.001v53.914H397.65V52.024h-5.459v-7.618h-5.599v-4.872l-5.125-5.125h-14.39l-7.528 7.528v17.356h-3.374v-8.928h-37.144l-3.076 3v56.466h-5.527V96.26h-11.834V34.434h-13.14V23.973h-8.488V2h-1.874v21.973h-15.163l-2.091 2.381v7.455h-6.686l-3.258 3v42.16h-10.722v-15.62h-5.552v-5.372h-20.977v5.368h-2.439l-1.889 3v12.263h-25.564l-2.516 2v19.415h-14.93l-2.446 2 .391 13.029-14.623.168.014-8.142h-18.268l-2.247-3.904h-7.142v-9.028h-1.083l.034-11.863h-2.2l-.572-5.802-1.09-.212.034-5.181-.034 5.181-.864.057-.635 5.957h-2.202v11.286h-2.044v9.605h-5.842l-3.037 3.904H84.816l-3.147 2 .283 11.811h-17.71V90.222H44.797l-3.918 3v19.509H0" vector-effect="non-scaling-stroke" fill="none" stroke="#afafaf" stroke-width="2"/></svg>
