<?xml version="1.0" encoding="UTF-8" standalone="no"?>
<!DOCTYPE svg PUBLIC "-//W3C//DTD SVG 1.1//EN" "http://www.w3.org/Graphics/SVG/1.1/DTD/svg11.dtd">
<svg width="100%" height="100%" viewBox="0 0 1024 125" version="1.1" xmlns="http://www.w3.org/2000/svg"
  xmlns:xlink="http://www.w3.org/1999/xlink" xml:space="preserve" xmlns:serif="http://www.serif.com/"
  style="fill-rule:evenodd;clip-rule:evenodd;stroke-linecap:round;stroke-linejoin:round;stroke-miterlimit:1.5;">
  <g transform="matrix(1,0,0,1,0,-287.5)">
    <path
      d="M0,400.5 L40.879,400.5 L40.879,377.722 L64.242,377.722 L64.242,403.389 L81.952,403.389 L81.952,390.161 L107.328,390.161 L107.328,380.069 L110.372,380.069 L110.372,369.401 L115.735,369.401 L115.711,354.208 L115.735,369.401 L117.901,370.779 L117.901,381.646 L119.984,381.646 L119.984,391.187 L126.126,391.187 L129.373,394.434 L146.641,394.434 L146.641,387.523 L178.235,387.523 L178.235,366.108 L206.315,366.108 L206.315,350.845 L210.643,350.845 L210.643,345.477 L231.62,345.477 L231.62,350.849 L237.172,350.849 L237.172,366.469 L247.894,366.469 L247.894,321.309 L257.838,321.309 L257.838,313.854 L259.929,311.763 L275.092,311.763 L275.092,287.5 L278.966,287.5 L278.966,311.184 L285.454,311.184 L285.454,321.934 L298.594,321.934 L298.594,383.76 L310.428,383.76 L310.428,397.331 L315.955,397.331 L315.955,337.865 L356.175,337.865 L356.175,346.793 L359.549,346.793 L359.549,329.437 L367.077,321.909 L381.467,321.909 L386.592,327.034 L386.592,331.906 L392.191,331.906 L392.191,339.524 L397.65,339.524 L397.65,388.18 L416.339,388.18 L416.339,332.266 L417.952,308.955 L417.952,332.257 L426.869,332.257 L429.068,336.92 L435.923,336.92 L438.083,334.761 L444.553,334.761 L444.553,342.86 L470.475,342.86 L470.475,359.359 L477.915,346.922 L495.063,347.266 L501.566,358.508 L506.348,371.773 L506.348,400.5 L516.286,400.5 L516.47,400.68 L516.286,366.065 L518.403,357.473 L518.859,347.828 L521.683,347.339 L523.392,295.951 L525.922,312.552 L526.77,321.394 L542.332,322.064 L543.507,296.441 L546.493,322.764 L546.18,335.169 L550.302,349.886 L550.189,354.591 L551.776,364.748 L551.776,382.194 L568.366,382.194 L575.394,389.223 L575.394,399.946 L598.514,399.946 L598.514,337.664 L626.033,337.664 L626.033,360.117 L623.796,360.565 L623.796,402.236 L638.552,402.306 L638.552,391.402 L646.549,391.402 L648.811,389.14 L648.811,379.831 L648.811,389.14 L653.769,389.14 L655.957,391.327 L664.996,391.327 L664.996,409.706 L670.447,409.706 L670.447,412.466 L679.858,412.466 L679.858,404.527 L694.955,404.527 L694.955,386.336 L701.516,379.775 L707.957,342.553 L739.196,342.553 L739.196,353.399 L744.113,367.386 L744.113,397.689 L749.257,397.32 L751.543,384.271 L752.161,397.36 L767.867,402.683 L767.867,367.248 L771.853,363.263 L777.222,363.263 L777.222,360.123 L789.241,360.123 L789.241,363.19 L801.548,363.19 L801.548,378.462 L805.746,382.66 L808.501,382.66 L808.501,374.245 L816.606,374.245 L818.699,372.152 L821.698,372.152 L823.785,374.239 L842.781,374.239 L842.781,370.105 L849.465,370.105 L849.465,373.565 L868.506,373.565 L868.506,386.594 L882.029,386.594 L888.162,380.461 L893.656,385.955 L893.656,405.129 L903.494,398.377 L912.842,398.377 L912.842,393.033 L921.49,393.033 L921.49,398.509 L946.117,398.509 L946.117,371.287 L948.869,368.534 L987.098,368.534 L992.506,373.943 L992.506,395.962 L1024,395.962"
      stroke-width="1"
      stroke="rgb(175,175,175)"
      vector-effect="non-scaling-stroke"
      fill="none"
      id="skyline" />
  </g>
</svg>
