<?xml version="1.0" encoding="UTF-8" standalone="no"?>
<!DOCTYPE svg PUBLIC "-//W3C//DTD SVG 1.1//EN" "http://www.w3.org/Graphics/SVG/1.1/DTD/svg11.dtd">
<svg width="100%" height="100%" viewBox="0 0 808 162" version="1.1" xmlns="http://www.w3.org/2000/svg" xmlns:xlink="http://www.w3.org/1999/xlink" xml:space="preserve" xmlns:serif="http://www.serif.com/" style="fill-rule:evenodd;clip-rule:evenodd;stroke-linejoin:round;stroke-miterlimit:2;">
    <g id="Artboard1" transform="matrix(1,0,0,1,7.14449,-25.3078)">
        <rect x="-7.144" y="25.308" width="807.144" height="161.691" style="fill:none;"/>
        <clipPath id="_clip1">
            <rect x="-7.144" y="25.308" width="807.144" height="161.691"/>
        </clipPath>
        <g clip-path="url(#_clip1)">
            <g transform="matrix(0.0995032,0,0,0.0995032,569.341,44.6809)">
                <g opacity="0.25">
                    <g transform="matrix(1,0,0,1,-320,-256)">
                        <path d="M571.7,238.8C574.5,228.9 576,218.6 576,208C576,146.1 525.9,96 464,96C447.3,96 431.1,99.6 416,106.8C384.4,61.8 331.7,32 272,32C177.6,32 100.3,106.5 96.2,200.2C39.2,220.2 0,274.3 0,336C0,415.6 64.4,480 144,480L512,480C582.7,480 640,422.8 640,352C640,305 614.2,261.2 571.7,238.8ZM512,448L144,448C82.1,448 32,397.9 32,336C32,279.2 74.2,232.3 129,225C128.3,219.4 128,213.7 128,208C128,128.5 192.5,64 272,64C332.3,64 383.9,101 405.4,153.6C420,137.9 440.8,128 464,128C508.2,128 544,163.8 544,208C544,226.5 537.7,243.6 527.1,257.2C573,264.4 608,304.1 608,352C608,405 565,448 512,448Z" style="fill-rule:nonzero;"/>
                    </g>
                </g>
            </g>
            <g transform="matrix(0.0995032,0,0,0.0995032,653.046,108.841)">
                <g opacity="0.25">
                    <g transform="matrix(1,0,0,1,-224,-256)">
                        <path d="M376,320L232,320C227.611,320 224,323.611 224,328L224,344C224,348.389 227.611,352 232,352L376,352C380.389,352 384,348.389 384,344L384,328C384,323.611 380.389,320 376,320ZM416,0L32,0C14.445,0 -0,14.445 0,32L0,432C0,440.777 7.223,448 16,448L32,448L32,496C32,504.777 39.223,512 48,512L400,512C408.777,512 416,504.777 416,496L416,448L432,448C440.777,448 448,440.777 448,432L448,32C448,14.445 433.555,0 416,0ZM384,480L64,480L64,448L384,448L384,480ZM416,416L32,416L32,32L416,32L416,416ZM96,256L352,256C369.555,256 384,241.555 384,224L384,96C384,78.445 369.555,64 352,64L96,64C78.445,64 64,78.445 64,96L64,224C64,241.555 78.445,256 96,256ZM96,96L352,96L352,224L96,224L96,96ZM80,356C90.972,356 100,346.972 100,336C100,325.028 90.972,316 80,316C69.028,316 60,325.028 60,336C60,346.972 69.028,356 80,356Z" style="fill-rule:nonzero;"/>
                    </g>
                </g>
            </g>
            <g transform="matrix(0.0995032,0,0,0.0995032,653.046,44.6809)">
                <g opacity="0.25">
                    <g transform="matrix(1,0,0,1,-288,-256)">
                        <path d="M528,96L464,96L456.84,81.69C452,71.92 439.13,64 428.22,64L358.59,64L331.31,36.72C328.376,33.701 324.34,31.996 320.13,32C320.087,32 320.043,31.999 320,31.999C311.223,31.999 304,39.222 304,47.999L304,224L192,224C173.164,223.997 154.741,229.565 139.06,240L112,240C85.678,239.973 64.027,218.322 64,192C64,183.223 56.777,176 48,176C39.223,176 32,183.223 32,192C32.092,234.857 66.633,270.406 109.47,271.73C100.745,286.325 96.093,302.996 96,320L96,480C96,497.555 110.445,512 128,512L192,512C209.555,512 224,497.555 224,480L224,384L320,384L320,480C320,497.555 334.445,512 352,512L416,512C433.555,512 448,497.555 448,480L448,240L480,240C515.109,240 544,211.109 544,176L544,112C544,103.223 536.777,96 528,96ZM416,480L352,480L352,352L192,352L192,480L128,480L128,320C128.038,284.905 156.905,256.038 192,256L310.06,256L416,282.48L416,480ZM512,176C512,193.555 497.555,208 480,208L416,208L416,249.52L336,229.52L336,86.66L345.34,96L428.22,96L444.22,128L512,128L512,176ZM416,128C416,136.777 408.777,144 400,144C391.223,144 384,136.777 384,128C384,119.223 391.223,112 400,112C408.777,112 416,119.223 416,128Z" style="fill-rule:nonzero;"/>
                    </g>
                </g>
            </g>
            <g transform="matrix(0.0995032,0,0,0.0995032,739.643,44.6809)">
                <g opacity="0.25">
                    <g transform="matrix(1,0,0,1,-320,-256)">
                        <path d="M638.59,368.22L605.22,156.63C596.36,106.37 556.82,65.86 504.56,53.5L504.49,53.5C383.163,24.862 256.817,24.862 135.49,53.5C83.17,65.86 43.64,106.36 34.78,156.63L1.41,368.22C-8.9,426.73 38.8,480 101.51,480C151.18,480 195.28,449.93 210.99,405.36L218.51,384L421.51,384L429,405.36C444.72,449.93 488.82,480 538.49,480C601.2,480 648.9,426.73 638.59,368.22ZM593.48,423.1C580.2,438.92 560.15,448 538.48,448C502.28,448 470.41,426.59 459.19,394.73L451.66,373.37L444.14,352L195.86,352L188.33,373.37L180.8,394.73C169.58,426.59 137.71,448 101.51,448C79.85,448 59.8,438.92 46.51,423.1C34.703,409.373 29.731,391.009 33,373.2L66.28,162.2C72.94,124.5 103,94.06 142.81,84.63C259.329,57.118 380.671,57.118 497.19,84.63C537.03,94.05 567.06,124.49 573.61,161.63L607.08,373.78C610.19,391.42 605.36,408.94 593.48,423.1ZM254.18,204.36L211.64,204.36L211.64,161.82C211.618,156.441 207.199,152.022 201.82,152L182.18,152C176.801,152.022 172.382,156.441 172.36,161.82L172.36,204.36L129.82,204.36C124.441,204.382 120.022,208.801 120,214.18L120,233.82C120.022,239.199 124.441,243.618 129.82,243.64L172.36,243.64L172.36,286.18C172.382,291.559 176.801,295.978 182.18,296L201.82,296C207.199,295.978 211.618,291.559 211.64,286.18L211.64,243.64L254.18,243.64C259.559,243.618 263.978,239.199 264,233.82L264,214.18C263.978,208.801 259.559,204.382 254.18,204.36ZM416,224C398.445,224 384,238.445 384,256C384,273.555 398.445,288 416,288C433.555,288 448,273.555 448,256C448,238.445 433.555,224 416,224ZM480,160C462.445,160 448,174.445 448,192C448,209.555 462.445,224 480,224C497.555,224 512,209.555 512,192C512,174.445 497.555,160 480,160Z" style="fill-rule:nonzero;"/>
                    </g>
                </g>
            </g>
            <g transform="matrix(0.0995032,0,0,0.0995032,569.341,108.841)">
                <g opacity="0.25">
                    <g transform="matrix(1,0,0,1,-320,-256)">
                        <clipPath id="_clip2">
                            <rect x="0" y="0" width="640" height="512"/>
                        </clipPath>
                        <g clip-path="url(#_clip2)">
                            <path d="M624,352L410.6,352C407.6,352 404.8,350.3 403.4,347.6L373.6,288L491.6,51.8C495.5,43.9 492.3,34.3 484.4,30.3L427.3,1.7C419.4,-2.3 409.8,0.9 405.8,8.9L320,180.6L234.2,8.8C230.3,0.9 220.6,-2.3 212.7,1.6L155.4,30.2C147.5,34.2 144.3,43.8 148.2,51.7L266.2,287.9L236.4,347.5C235,350.2 232.3,351.9 229.2,351.9L16,351.9C7.2,351.9 0,359.1 0,367.9L0,495.9C0,504.7 7.2,511.9 16,511.9L202.3,511.9C238.7,511.9 271.9,491.3 288.2,458.8L320,395.2L351.8,458.8C368.1,491.3 401.3,511.9 437.7,511.9L624,511.9C632.8,511.9 640,504.7 640,495.9L640,368C640,359.2 632.8,352 624,352ZM184.1,51.8L212.7,37.5L302.1,216.4L284.2,252.2L184.1,51.8ZM32,480L32,384L64,384L64,480L32,480ZM259.6,444.6C248.7,466.4 226.8,480 202.4,480L96,480L96,384L229.4,384C244.7,384 258.4,375.5 265.2,361.9L427.3,37.5L455.9,51.8L259.6,444.6ZM437.7,480C413.3,480 391.4,466.4 380.5,444.6L338,359.5L355.9,323.7L375,361.8C381.8,375.4 395.5,383.9 410.8,383.9L544,383.9L544,479.9L437.7,479.9L437.7,480ZM608,480L576,480L576,384L608,384L608,480Z" style="fill-rule:nonzero;"/>
                        </g>
                    </g>
                </g>
            </g>
            <g transform="matrix(0.100226,0,0,0.100226,739.643,108.841)">
                <g opacity="0.25">
                    <g transform="matrix(1,0,0,1,-288,-256)">
                        <path d="M552,64L88,64C74.766,64 64,74.767 64,88L64,96L24,96C10.745,96 0,106.745 0,120L0,400C0,426.51 21.49,448 48,448L552,448C565.233,448 576,437.233 576,424L576,88C576,74.767 565.233,64 552,64ZM32,400L32,128L64,128L64,400C64,408.822 56.822,416 48,416C39.178,416 32,408.822 32,400ZM544,416L93.258,416C95.076,410.862 96.003,405.45 96,400L96,96L544,96L544,416ZM140,320L308,320C314.627,320 320,314.627 320,308L320,140C320,133.373 314.627,128 308,128L140,128C133.373,128 128,133.373 128,140L128,308C128,314.627 133.373,320 140,320ZM160,160L288,160L288,288L160,288L160,160ZM128,372L128,364C128,357.373 133.373,352 140,352L308,352C314.627,352 320,357.373 320,364L320,372C320,378.627 314.627,384 308,384L140,384C133.373,384 128,378.627 128,372ZM352,372L352,364C352,357.373 357.373,352 364,352L500,352C506.627,352 512,357.373 512,364L512,372C512,378.627 506.627,384 500,384L364,384C357.373,384 352,378.627 352,372ZM352,308L352,300C352,293.373 357.373,288 364,288L500,288C506.627,288 512,293.373 512,300L512,308C512,314.627 506.627,320 500,320L364,320C357.373,320 352,314.627 352,308ZM352,180L352,172C352,165.373 357.373,160 364,160L500,160C506.627,160 512,165.373 512,172L512,180C512,186.627 506.627,192 500,192L364,192C357.373,192 352,186.627 352,180ZM352,244L352,236C352,229.373 357.373,224 364,224L500,224C506.627,224 512,229.373 512,236L512,244C512,250.627 506.627,256 500,256L364,256C357.373,256 352,250.627 352,244Z" style="fill-rule:nonzero;"/>
                    </g>
                </g>
            </g>
            <g transform="matrix(0.0995032,0,0,0.0995032,134.44,44.6809)">
                <g opacity="0.25">
                    <g transform="matrix(1,0,0,1,-224,-256)">
                        <path d="M376,320L232,320C227.611,320 224,323.611 224,328L224,344C224,348.389 227.611,352 232,352L376,352C380.389,352 384,348.389 384,344L384,328C384,323.611 380.389,320 376,320ZM416,0L32,0C14.445,0 -0,14.445 0,32L0,432C0,440.777 7.223,448 16,448L32,448L32,496C32,504.777 39.223,512 48,512L400,512C408.777,512 416,504.777 416,496L416,448L432,448C440.777,448 448,440.777 448,432L448,32C448,14.445 433.555,0 416,0ZM384,480L64,480L64,448L384,448L384,480ZM416,416L32,416L32,32L416,32L416,416ZM96,256L352,256C369.555,256 384,241.555 384,224L384,96C384,78.445 369.555,64 352,64L96,64C78.445,64 64,78.445 64,96L64,224C64,241.555 78.445,256 96,256ZM96,96L352,96L352,224L96,224L96,96ZM80,356C90.972,356 100,346.972 100,336C100,325.028 90.972,316 80,316C69.028,316 60,325.028 60,336C60,346.972 69.028,356 80,356Z" style="fill-rule:nonzero;"/>
                    </g>
                </g>
            </g>
            <g transform="matrix(0.0995032,0,0,0.0995032,47.8001,44.6809)">
                <g opacity="0.25">
                    <g transform="matrix(1,0,0,1,-320,-256)">
                        <clipPath id="_clip3">
                            <rect x="0" y="0" width="640" height="512"/>
                        </clipPath>
                        <g clip-path="url(#_clip3)">
                            <path d="M624,352L410.6,352C407.6,352 404.8,350.3 403.4,347.6L373.6,288L491.6,51.8C495.5,43.9 492.3,34.3 484.4,30.3L427.3,1.7C419.4,-2.3 409.8,0.9 405.8,8.9L320,180.6L234.2,8.8C230.3,0.9 220.6,-2.3 212.7,1.6L155.4,30.2C147.5,34.2 144.3,43.8 148.2,51.7L266.2,287.9L236.4,347.5C235,350.2 232.3,351.9 229.2,351.9L16,351.9C7.2,351.9 0,359.1 0,367.9L0,495.9C0,504.7 7.2,511.9 16,511.9L202.3,511.9C238.7,511.9 271.9,491.3 288.2,458.8L320,395.2L351.8,458.8C368.1,491.3 401.3,511.9 437.7,511.9L624,511.9C632.8,511.9 640,504.7 640,495.9L640,368C640,359.2 632.8,352 624,352ZM184.1,51.8L212.7,37.5L302.1,216.4L284.2,252.2L184.1,51.8ZM32,480L32,384L64,384L64,480L32,480ZM259.6,444.6C248.7,466.4 226.8,480 202.4,480L96,480L96,384L229.4,384C244.7,384 258.4,375.5 265.2,361.9L427.3,37.5L455.9,51.8L259.6,444.6ZM437.7,480C413.3,480 391.4,466.4 380.5,444.6L338,359.5L355.9,323.7L375,361.8C381.8,375.4 395.5,383.9 410.8,383.9L544,383.9L544,479.9L437.7,479.9L437.7,480ZM608,480L576,480L576,384L608,384L608,480Z" style="fill-rule:nonzero;"/>
                        </g>
                    </g>
                </g>
            </g>
            <g transform="matrix(0.100226,0,0,0.100226,221.081,44.6809)">
                <g opacity="0.25">
                    <g transform="matrix(1,0,0,1,-288,-256)">
                        <path d="M552,64L88,64C74.766,64 64,74.767 64,88L64,96L24,96C10.745,96 0,106.745 0,120L0,400C0,426.51 21.49,448 48,448L552,448C565.233,448 576,437.233 576,424L576,88C576,74.767 565.233,64 552,64ZM32,400L32,128L64,128L64,400C64,408.822 56.822,416 48,416C39.178,416 32,408.822 32,400ZM544,416L93.258,416C95.076,410.862 96.003,405.45 96,400L96,96L544,96L544,416ZM140,320L308,320C314.627,320 320,314.627 320,308L320,140C320,133.373 314.627,128 308,128L140,128C133.373,128 128,133.373 128,140L128,308C128,314.627 133.373,320 140,320ZM160,160L288,160L288,288L160,288L160,160ZM128,372L128,364C128,357.373 133.373,352 140,352L308,352C314.627,352 320,357.373 320,364L320,372C320,378.627 314.627,384 308,384L140,384C133.373,384 128,378.627 128,372ZM352,372L352,364C352,357.373 357.373,352 364,352L500,352C506.627,352 512,357.373 512,364L512,372C512,378.627 506.627,384 500,384L364,384C357.373,384 352,378.627 352,372ZM352,308L352,300C352,293.373 357.373,288 364,288L500,288C506.627,288 512,293.373 512,300L512,308C512,314.627 506.627,320 500,320L364,320C357.373,320 352,314.627 352,308ZM352,180L352,172C352,165.373 357.373,160 364,160L500,160C506.627,160 512,165.373 512,172L512,180C512,186.627 506.627,192 500,192L364,192C357.373,192 352,186.627 352,180ZM352,244L352,236C352,229.373 357.373,224 364,224L500,224C506.627,224 512,229.373 512,236L512,244C512,250.627 506.627,256 500,256L364,256C357.373,256 352,250.627 352,244Z" style="fill-rule:nonzero;"/>
                    </g>
                </g>
            </g>
            <g transform="matrix(0.0995032,0,0,0.0995032,569.341,175.306)">
                <g opacity="0.25">
                    <g transform="matrix(1,0,0,1,-256,-256)">
                        <path d="M128,384C145.67,384 160,369.67 160,352C160,334.33 145.67,320 128,320C110.33,320 96,334.33 96,352C96,369.67 110.33,384 128,384ZM384,384C401.67,384 416,369.67 416,352C416,334.33 401.67,320 384,320C366.33,320 352,334.33 352,352C352,369.67 366.33,384 384,384ZM488,128L480,128L480,80C480,35.2 380.8,0 256,0C131.2,0 32,35.2 32,80L32,128L24,128C10.75,128 0,138.74 0,152L0,232C0,245.25 10.75,256 24,256L32,256L32,416C32,433.67 46.33,448 64,448L64,480C64,497.67 78.33,512 96,512L144,512C161.67,512 176,497.67 176,480L176,448L336,448L336,480C336,497.67 350.33,512 368,512L416,512C433.67,512 448,497.67 448,480L448,448C465.67,448 480,433.67 480,416L480,256L488,256C501.25,256 512,245.25 512,232L512,152C512,138.74 501.25,128 488,128ZM144,480L96,480L96,448L144,448L144,480ZM416,480L368,480L368,448L416,448L416,480ZM448,416L64,416L63.99,288L448.01,288L448,416ZM448.01,256L63.99,256L63.98,128L448.03,128L448.01,256ZM448.03,96L63.97,96L63.97,80.31C67.31,67 131.41,32 256,32C380.59,32 444.69,67 448.03,80.31L448.03,96Z" style="fill-rule:nonzero;"/>
                    </g>
                </g>
            </g>
            <g transform="matrix(0.0995032,0,0,0.0995032,653.046,175.306)">
                <g opacity="0.25">
                    <g transform="matrix(1,0,0,1,-256,-256)">
                        <path d="M456,416L415.01,416C454.22,386.81 480,340.52 480,288C480,199.78 408.22,128 320,128L320,64C320,46.33 305.67,32 288,32L288,16C288,7.16 280.84,0 272,0L176,0C167.16,0 160,7.16 160,16L160,32C142.33,32 128,46.33 128,64L128,288C128,305.67 142.33,320 160,320L160,368C160,376.84 167.16,384 176,384L272,384C280.84,384 288,376.84 288,368L288,320C305.67,320 320,305.67 320,288L320,160C390.59,160 448,217.42 448,288C448,358.58 390.59,416 320,416L56,416C25.12,416 0,441.12 0,472C0,494.06 17.94,512 40,512L472,512C494.06,512 512,494.06 512,472C512,441.12 486.88,416 456,416ZM256,352L192,352L192,320L256,320L256,352ZM288,288L160,288L160,64L192,64L192,32L256,32L256,64L288,64L288,288ZM472,480L40,480C35.58,480 32,476.42 32,472C32,458.74 42.75,448 56,448L456,448C469.25,448 480,458.74 480,472C480,476.42 476.42,480 472,480Z" style="fill-rule:nonzero;"/>
                    </g>
                </g>
            </g>
            <g transform="matrix(0.0995032,0,0,0.0995032,312.865,44.6809)">
                <g opacity="0.25">
                    <g transform="matrix(1,0,0,1,-256,-256)">
                        <path d="M128,384C145.67,384 160,369.67 160,352C160,334.33 145.67,320 128,320C110.33,320 96,334.33 96,352C96,369.67 110.33,384 128,384ZM384,384C401.67,384 416,369.67 416,352C416,334.33 401.67,320 384,320C366.33,320 352,334.33 352,352C352,369.67 366.33,384 384,384ZM488,128L480,128L480,80C480,35.2 380.8,0 256,0C131.2,0 32,35.2 32,80L32,128L24,128C10.75,128 0,138.74 0,152L0,232C0,245.25 10.75,256 24,256L32,256L32,416C32,433.67 46.33,448 64,448L64,480C64,497.67 78.33,512 96,512L144,512C161.67,512 176,497.67 176,480L176,448L336,448L336,480C336,497.67 350.33,512 368,512L416,512C433.67,512 448,497.67 448,480L448,448C465.67,448 480,433.67 480,416L480,256L488,256C501.25,256 512,245.25 512,232L512,152C512,138.74 501.25,128 488,128ZM144,480L96,480L96,448L144,448L144,480ZM416,480L368,480L368,448L416,448L416,480ZM448,416L64,416L63.99,288L448.01,288L448,416ZM448.01,256L63.99,256L63.98,128L448.03,128L448.01,256ZM448.03,96L63.97,96L63.97,80.31C67.31,67 131.41,32 256,32C380.59,32 444.69,67 448.03,80.31L448.03,96Z" style="fill-rule:nonzero;"/>
                    </g>
                </g>
            </g>
            <g transform="matrix(0.0995032,0,0,0.0995032,312.865,108.841)">
                <g opacity="0.25">
                    <g transform="matrix(1,0,0,1,-320,-256)">
                        <path d="M571.7,238.8C574.5,228.9 576,218.6 576,208C576,146.1 525.9,96 464,96C447.3,96 431.1,99.6 416,106.8C384.4,61.8 331.7,32 272,32C177.6,32 100.3,106.5 96.2,200.2C39.2,220.2 0,274.3 0,336C0,415.6 64.4,480 144,480L512,480C582.7,480 640,422.8 640,352C640,305 614.2,261.2 571.7,238.8ZM512,448L144,448C82.1,448 32,397.9 32,336C32,279.2 74.2,232.3 129,225C128.3,219.4 128,213.7 128,208C128,128.5 192.5,64 272,64C332.3,64 383.9,101 405.4,153.6C420,137.9 440.8,128 464,128C508.2,128 544,163.8 544,208C544,226.5 537.7,243.6 527.1,257.2C573,264.4 608,304.1 608,352C608,405 565,448 512,448Z" style="fill-rule:nonzero;"/>
                    </g>
                </g>
            </g>
            <g transform="matrix(0.0995032,0,0,0.0995032,390.537,175.306)">
                <g opacity="0.25">
                    <g transform="matrix(1,0,0,1,-224,-256)">
                        <path d="M376,320L232,320C227.611,320 224,323.611 224,328L224,344C224,348.389 227.611,352 232,352L376,352C380.389,352 384,348.389 384,344L384,328C384,323.611 380.389,320 376,320ZM416,0L32,0C14.445,0 -0,14.445 0,32L0,432C0,440.777 7.223,448 16,448L32,448L32,496C32,504.777 39.223,512 48,512L400,512C408.777,512 416,504.777 416,496L416,448L432,448C440.777,448 448,440.777 448,432L448,32C448,14.445 433.555,0 416,0ZM384,480L64,480L64,448L384,448L384,480ZM416,416L32,416L32,32L416,32L416,416ZM96,256L352,256C369.555,256 384,241.555 384,224L384,96C384,78.445 369.555,64 352,64L96,64C78.445,64 64,78.445 64,96L64,224C64,241.555 78.445,256 96,256ZM96,96L352,96L352,224L96,224L96,96ZM80,356C90.972,356 100,346.972 100,336C100,325.028 90.972,316 80,316C69.028,316 60,325.028 60,336C60,346.972 69.028,356 80,356Z" style="fill-rule:nonzero;"/>
                    </g>
                </g>
            </g>
            <g transform="matrix(0.0960747,0,0,0.0960747,476.084,42.1605)">
                <g opacity="0.25">
                    <g transform="matrix(1,0,0,1,-256,-256)">
                        <clipPath id="_clip4">
                            <rect x="0" y="0" width="512" height="512"/>
                        </clipPath>
                        <g clip-path="url(#_clip4)">
                            <path d="M158.87,0.15C157.78,0.05 156.69,0 155.61,0C140.686,-0.163 127.437,9.863 123.54,24.27L0.55,491.63C0.195,492.978 0.016,494.366 0.016,495.76C0.016,504.629 7.281,511.942 16.15,512C17.637,511.995 19.117,511.79 20.55,511.39L488.15,381.73C503.87,377.38 513.64,362.06 511.77,345.84C490.89,165.08 340.78,17.32 158.87,0.15ZM38.49,473.21L133,113.91C281.3,127.91 381.38,226.54 397.45,373.66L38.49,473.21ZM428.65,365C409.38,206.37 301.13,99.81 141.26,82.67L154.5,32.36C154.808,32.099 155.207,31.97 155.61,32L155.86,32C321.53,47.63 460.86,184.13 479.6,350.89L428.65,365ZM192,176C165.668,176 144,197.668 144,224C144,250.332 165.668,272 192,272C218.332,272 240,250.332 240,224C239.973,197.678 218.322,176.027 192,176ZM192,240C183.223,240 176,232.777 176,224C176,215.223 183.223,208 192,208C200.777,208 208,215.223 208,224C208,232.777 200.777,240 192,240ZM144,320C117.668,320 96,341.668 96,368C96,394.332 117.668,416 144,416C170.332,416 192,394.332 192,368C191.973,341.678 170.322,320.027 144,320ZM144,384C135.223,384 128,376.777 128,368C128,359.223 135.223,352 144,352C152.777,352 160,359.223 160,368C160,376.777 152.777,384 144,384ZM240,320C240,346.332 261.668,368 288,368C314.332,368 336,346.332 336,320C336,293.668 314.332,272 288,272C261.678,272.027 240.027,293.678 240,320ZM304,320C304,328.777 296.777,336 288,336C279.223,336 272,328.777 272,320C272,311.223 279.223,304 288,304C296.777,304 304,311.223 304,320Z" style="fill-rule:nonzero;"/>
                        </g>
                    </g>
                </g>
            </g>
            <g transform="matrix(0.0995032,0,0,0.0995032,222.394,108.841)">
                <g opacity="0.25">
                    <g transform="matrix(1,0,0,1,-256,-256)">
                        <clipPath id="_clip5">
                            <rect x="0" y="0" width="512" height="512"/>
                        </clipPath>
                        <g clip-path="url(#_clip5)">
                            <path d="M158.87,0.15C157.78,0.05 156.69,0 155.61,0C140.686,-0.163 127.437,9.863 123.54,24.27L0.55,491.63C0.195,492.978 0.016,494.366 0.016,495.76C0.016,504.629 7.281,511.942 16.15,512C17.637,511.995 19.117,511.79 20.55,511.39L488.15,381.73C503.87,377.38 513.64,362.06 511.77,345.84C490.89,165.08 340.78,17.32 158.87,0.15ZM38.49,473.21L133,113.91C281.3,127.91 381.38,226.54 397.45,373.66L38.49,473.21ZM428.65,365C409.38,206.37 301.13,99.81 141.26,82.67L154.5,32.36C154.808,32.099 155.207,31.97 155.61,32L155.86,32C321.53,47.63 460.86,184.13 479.6,350.89L428.65,365ZM192,176C165.668,176 144,197.668 144,224C144,250.332 165.668,272 192,272C218.332,272 240,250.332 240,224C239.973,197.678 218.322,176.027 192,176ZM192,240C183.223,240 176,232.777 176,224C176,215.223 183.223,208 192,208C200.777,208 208,215.223 208,224C208,232.777 200.777,240 192,240ZM144,320C117.668,320 96,341.668 96,368C96,394.332 117.668,416 144,416C170.332,416 192,394.332 192,368C191.973,341.678 170.322,320.027 144,320ZM144,384C135.223,384 128,376.777 128,368C128,359.223 135.223,352 144,352C152.777,352 160,359.223 160,368C160,376.777 152.777,384 144,384ZM240,320C240,346.332 261.668,368 288,368C314.332,368 336,346.332 336,320C336,293.668 314.332,272 288,272C261.678,272.027 240.027,293.678 240,320ZM304,320C304,328.777 296.777,336 288,336C279.223,336 272,328.777 272,320C272,311.223 279.223,304 288,304C296.777,304 304,311.223 304,320Z" style="fill-rule:nonzero;"/>
                        </g>
                    </g>
                </g>
            </g>
            <g transform="matrix(0.0944956,0,0,0.0944956,741.134,174.024)">
                <g opacity="0.25">
                    <g transform="matrix(1,0,0,1,-256,-256)">
                        <clipPath id="_clip6">
                            <rect x="0" y="0" width="512" height="512"/>
                        </clipPath>
                        <g clip-path="url(#_clip6)">
                            <path d="M158.87,0.15C157.78,0.05 156.69,0 155.61,0C140.686,-0.163 127.437,9.863 123.54,24.27L0.55,491.63C0.195,492.978 0.016,494.366 0.016,495.76C0.016,504.629 7.281,511.942 16.15,512C17.637,511.995 19.117,511.79 20.55,511.39L488.15,381.73C503.87,377.38 513.64,362.06 511.77,345.84C490.89,165.08 340.78,17.32 158.87,0.15ZM38.49,473.21L133,113.91C281.3,127.91 381.38,226.54 397.45,373.66L38.49,473.21ZM428.65,365C409.38,206.37 301.13,99.81 141.26,82.67L154.5,32.36C154.808,32.099 155.207,31.97 155.61,32L155.86,32C321.53,47.63 460.86,184.13 479.6,350.89L428.65,365ZM192,176C165.668,176 144,197.668 144,224C144,250.332 165.668,272 192,272C218.332,272 240,250.332 240,224C239.973,197.678 218.322,176.027 192,176ZM192,240C183.223,240 176,232.777 176,224C176,215.223 183.223,208 192,208C200.777,208 208,215.223 208,224C208,232.777 200.777,240 192,240ZM144,320C117.668,320 96,341.668 96,368C96,394.332 117.668,416 144,416C170.332,416 192,394.332 192,368C191.973,341.678 170.322,320.027 144,320ZM144,384C135.223,384 128,376.777 128,368C128,359.223 135.223,352 144,352C152.777,352 160,359.223 160,368C160,376.777 152.777,384 144,384ZM240,320C240,346.332 261.668,368 288,368C314.332,368 336,346.332 336,320C336,293.668 314.332,272 288,272C261.678,272.027 240.027,293.678 240,320ZM304,320C304,328.777 296.777,336 288,336C279.223,336 272,328.777 272,320C272,311.223 279.223,304 288,304C296.777,304 304,311.223 304,320Z" style="fill-rule:nonzero;"/>
                        </g>
                    </g>
                </g>
            </g>
            <g transform="matrix(0.0995032,0,0,0.0995032,390.537,108.841)">
                <g opacity="0.25">
                    <g transform="matrix(1,0,0,1,-288,-256)">
                        <path d="M528,96L464,96L456.84,81.69C452,71.92 439.13,64 428.22,64L358.59,64L331.31,36.72C328.376,33.701 324.34,31.996 320.13,32C320.087,32 320.043,31.999 320,31.999C311.223,31.999 304,39.222 304,47.999L304,224L192,224C173.164,223.997 154.741,229.565 139.06,240L112,240C85.678,239.973 64.027,218.322 64,192C64,183.223 56.777,176 48,176C39.223,176 32,183.223 32,192C32.092,234.857 66.633,270.406 109.47,271.73C100.745,286.325 96.093,302.996 96,320L96,480C96,497.555 110.445,512 128,512L192,512C209.555,512 224,497.555 224,480L224,384L320,384L320,480C320,497.555 334.445,512 352,512L416,512C433.555,512 448,497.555 448,480L448,240L480,240C515.109,240 544,211.109 544,176L544,112C544,103.223 536.777,96 528,96ZM416,480L352,480L352,352L192,352L192,480L128,480L128,320C128.038,284.905 156.905,256.038 192,256L310.06,256L416,282.48L416,480ZM512,176C512,193.555 497.555,208 480,208L416,208L416,249.52L336,229.52L336,86.66L345.34,96L428.22,96L444.22,128L512,128L512,176ZM416,128C416,136.777 408.777,144 400,144C391.223,144 384,136.777 384,128C384,119.223 391.223,112 400,112C408.777,112 416,119.223 416,128Z" style="fill-rule:nonzero;"/>
                    </g>
                </g>
            </g>
            <g transform="matrix(0.0995032,0,0,0.0995032,476.084,108.841)">
                <g opacity="0.25">
                    <g transform="matrix(1,0,0,1,-320,-256)">
                        <path d="M638.59,368.22L605.22,156.63C596.36,106.37 556.82,65.86 504.56,53.5L504.49,53.5C383.163,24.862 256.817,24.862 135.49,53.5C83.17,65.86 43.64,106.36 34.78,156.63L1.41,368.22C-8.9,426.73 38.8,480 101.51,480C151.18,480 195.28,449.93 210.99,405.36L218.51,384L421.51,384L429,405.36C444.72,449.93 488.82,480 538.49,480C601.2,480 648.9,426.73 638.59,368.22ZM593.48,423.1C580.2,438.92 560.15,448 538.48,448C502.28,448 470.41,426.59 459.19,394.73L451.66,373.37L444.14,352L195.86,352L188.33,373.37L180.8,394.73C169.58,426.59 137.71,448 101.51,448C79.85,448 59.8,438.92 46.51,423.1C34.703,409.373 29.731,391.009 33,373.2L66.28,162.2C72.94,124.5 103,94.06 142.81,84.63C259.329,57.118 380.671,57.118 497.19,84.63C537.03,94.05 567.06,124.49 573.61,161.63L607.08,373.78C610.19,391.42 605.36,408.94 593.48,423.1ZM254.18,204.36L211.64,204.36L211.64,161.82C211.618,156.441 207.199,152.022 201.82,152L182.18,152C176.801,152.022 172.382,156.441 172.36,161.82L172.36,204.36L129.82,204.36C124.441,204.382 120.022,208.801 120,214.18L120,233.82C120.022,239.199 124.441,243.618 129.82,243.64L172.36,243.64L172.36,286.18C172.382,291.559 176.801,295.978 182.18,296L201.82,296C207.199,295.978 211.618,291.559 211.64,286.18L211.64,243.64L254.18,243.64C259.559,243.618 263.978,239.199 264,233.82L264,214.18C263.978,208.801 259.559,204.382 254.18,204.36ZM416,224C398.445,224 384,238.445 384,256C384,273.555 398.445,288 416,288C433.555,288 448,273.555 448,256C448,238.445 433.555,224 416,224ZM480,160C462.445,160 448,174.445 448,192C448,209.555 462.445,224 480,224C497.555,224 512,209.555 512,192C512,174.445 497.555,160 480,160Z" style="fill-rule:nonzero;"/>
                    </g>
                </g>
            </g>
            <g transform="matrix(0.0995032,0,0,0.0995032,312.865,175.306)">
                <g opacity="0.25">
                    <g transform="matrix(1,0,0,1,-320,-256)">
                        <clipPath id="_clip7">
                            <rect x="0" y="0" width="640" height="512"/>
                        </clipPath>
                        <g clip-path="url(#_clip7)">
                            <path d="M624,352L410.6,352C407.6,352 404.8,350.3 403.4,347.6L373.6,288L491.6,51.8C495.5,43.9 492.3,34.3 484.4,30.3L427.3,1.7C419.4,-2.3 409.8,0.9 405.8,8.9L320,180.6L234.2,8.8C230.3,0.9 220.6,-2.3 212.7,1.6L155.4,30.2C147.5,34.2 144.3,43.8 148.2,51.7L266.2,287.9L236.4,347.5C235,350.2 232.3,351.9 229.2,351.9L16,351.9C7.2,351.9 0,359.1 0,367.9L0,495.9C0,504.7 7.2,511.9 16,511.9L202.3,511.9C238.7,511.9 271.9,491.3 288.2,458.8L320,395.2L351.8,458.8C368.1,491.3 401.3,511.9 437.7,511.9L624,511.9C632.8,511.9 640,504.7 640,495.9L640,368C640,359.2 632.8,352 624,352ZM184.1,51.8L212.7,37.5L302.1,216.4L284.2,252.2L184.1,51.8ZM32,480L32,384L64,384L64,480L32,480ZM259.6,444.6C248.7,466.4 226.8,480 202.4,480L96,480L96,384L229.4,384C244.7,384 258.4,375.5 265.2,361.9L427.3,37.5L455.9,51.8L259.6,444.6ZM437.7,480C413.3,480 391.4,466.4 380.5,444.6L338,359.5L355.9,323.7L375,361.8C381.8,375.4 395.5,383.9 410.8,383.9L544,383.9L544,479.9L437.7,479.9L437.7,480ZM608,480L576,480L576,384L608,384L608,480Z" style="fill-rule:nonzero;"/>
                        </g>
                    </g>
                </g>
            </g>
            <g transform="matrix(0.0995032,0,0,0.0995032,390.537,44.6809)">
                <g opacity="0.25">
                    <g transform="matrix(1,0,0,1,-256,-256)">
                        <path d="M456,416L415.01,416C454.22,386.81 480,340.52 480,288C480,199.78 408.22,128 320,128L320,64C320,46.33 305.67,32 288,32L288,16C288,7.16 280.84,0 272,0L176,0C167.16,0 160,7.16 160,16L160,32C142.33,32 128,46.33 128,64L128,288C128,305.67 142.33,320 160,320L160,368C160,376.84 167.16,384 176,384L272,384C280.84,384 288,376.84 288,368L288,320C305.67,320 320,305.67 320,288L320,160C390.59,160 448,217.42 448,288C448,358.58 390.59,416 320,416L56,416C25.12,416 0,441.12 0,472C0,494.06 17.94,512 40,512L472,512C494.06,512 512,494.06 512,472C512,441.12 486.88,416 456,416ZM256,352L192,352L192,320L256,320L256,352ZM288,288L160,288L160,64L192,64L192,32L256,32L256,64L288,64L288,288ZM472,480L40,480C35.58,480 32,476.42 32,472C32,458.74 42.75,448 56,448L456,448C469.25,448 480,458.74 480,472C480,476.42 476.42,480 472,480Z" style="fill-rule:nonzero;"/>
                    </g>
                </g>
            </g>
            <g transform="matrix(0.100226,0,0,0.100226,476.084,175.306)">
                <g opacity="0.25">
                    <g transform="matrix(1,0,0,1,-288,-256)">
                        <path d="M552,64L88,64C74.766,64 64,74.767 64,88L64,96L24,96C10.745,96 0,106.745 0,120L0,400C0,426.51 21.49,448 48,448L552,448C565.233,448 576,437.233 576,424L576,88C576,74.767 565.233,64 552,64ZM32,400L32,128L64,128L64,400C64,408.822 56.822,416 48,416C39.178,416 32,408.822 32,400ZM544,416L93.258,416C95.076,410.862 96.003,405.45 96,400L96,96L544,96L544,416ZM140,320L308,320C314.627,320 320,314.627 320,308L320,140C320,133.373 314.627,128 308,128L140,128C133.373,128 128,133.373 128,140L128,308C128,314.627 133.373,320 140,320ZM160,160L288,160L288,288L160,288L160,160ZM128,372L128,364C128,357.373 133.373,352 140,352L308,352C314.627,352 320,357.373 320,364L320,372C320,378.627 314.627,384 308,384L140,384C133.373,384 128,378.627 128,372ZM352,372L352,364C352,357.373 357.373,352 364,352L500,352C506.627,352 512,357.373 512,364L512,372C512,378.627 506.627,384 500,384L364,384C357.373,384 352,378.627 352,372ZM352,308L352,300C352,293.373 357.373,288 364,288L500,288C506.627,288 512,293.373 512,300L512,308C512,314.627 506.627,320 500,320L364,320C357.373,320 352,314.627 352,308ZM352,180L352,172C352,165.373 357.373,160 364,160L500,160C506.627,160 512,165.373 512,172L512,180C512,186.627 506.627,192 500,192L364,192C357.373,192 352,186.627 352,180ZM352,244L352,236C352,229.373 357.373,224 364,224L500,224C506.627,224 512,229.373 512,236L512,244C512,250.627 506.627,256 500,256L364,256C357.373,256 352,250.627 352,244Z" style="fill-rule:nonzero;"/>
                    </g>
                </g>
            </g>
            <g transform="matrix(0.0995032,0,0,0.0995032,47.8001,108.841)">
                <g opacity="0.25">
                    <g transform="matrix(1,0,0,1,-256,-256)">
                        <path d="M128,384C145.67,384 160,369.67 160,352C160,334.33 145.67,320 128,320C110.33,320 96,334.33 96,352C96,369.67 110.33,384 128,384ZM384,384C401.67,384 416,369.67 416,352C416,334.33 401.67,320 384,320C366.33,320 352,334.33 352,352C352,369.67 366.33,384 384,384ZM488,128L480,128L480,80C480,35.2 380.8,0 256,0C131.2,0 32,35.2 32,80L32,128L24,128C10.75,128 0,138.74 0,152L0,232C0,245.25 10.75,256 24,256L32,256L32,416C32,433.67 46.33,448 64,448L64,480C64,497.67 78.33,512 96,512L144,512C161.67,512 176,497.67 176,480L176,448L336,448L336,480C336,497.67 350.33,512 368,512L416,512C433.67,512 448,497.67 448,480L448,448C465.67,448 480,433.67 480,416L480,256L488,256C501.25,256 512,245.25 512,232L512,152C512,138.74 501.25,128 488,128ZM144,480L96,480L96,448L144,448L144,480ZM416,480L368,480L368,448L416,448L416,480ZM448,416L64,416L63.99,288L448.01,288L448,416ZM448.01,256L63.99,256L63.98,128L448.03,128L448.01,256ZM448.03,96L63.97,96L63.97,80.31C67.31,67 131.41,32 256,32C380.59,32 444.69,67 448.03,80.31L448.03,96Z" style="fill-rule:nonzero;"/>
                    </g>
                </g>
            </g>
            <g transform="matrix(0.0995032,0,0,0.0995032,47.8001,175.306)">
                <g opacity="0.25">
                    <g transform="matrix(1,0,0,1,-320,-256)">
                        <path d="M571.7,238.8C574.5,228.9 576,218.6 576,208C576,146.1 525.9,96 464,96C447.3,96 431.1,99.6 416,106.8C384.4,61.8 331.7,32 272,32C177.6,32 100.3,106.5 96.2,200.2C39.2,220.2 0,274.3 0,336C0,415.6 64.4,480 144,480L512,480C582.7,480 640,422.8 640,352C640,305 614.2,261.2 571.7,238.8ZM512,448L144,448C82.1,448 32,397.9 32,336C32,279.2 74.2,232.3 129,225C128.3,219.4 128,213.7 128,208C128,128.5 192.5,64 272,64C332.3,64 383.9,101 405.4,153.6C420,137.9 440.8,128 464,128C508.2,128 544,163.8 544,208C544,226.5 537.7,243.6 527.1,257.2C573,264.4 608,304.1 608,352C608,405 565,448 512,448Z" style="fill-rule:nonzero;"/>
                    </g>
                </g>
            </g>
            <g transform="matrix(0.0995032,0,0,0.0995032,134.44,175.306)">
                <g opacity="0.25">
                    <g transform="matrix(1,0,0,1,-288,-256)">
                        <path d="M528,96L464,96L456.84,81.69C452,71.92 439.13,64 428.22,64L358.59,64L331.31,36.72C328.376,33.701 324.34,31.996 320.13,32C320.087,32 320.043,31.999 320,31.999C311.223,31.999 304,39.222 304,47.999L304,224L192,224C173.164,223.997 154.741,229.565 139.06,240L112,240C85.678,239.973 64.027,218.322 64,192C64,183.223 56.777,176 48,176C39.223,176 32,183.223 32,192C32.092,234.857 66.633,270.406 109.47,271.73C100.745,286.325 96.093,302.996 96,320L96,480C96,497.555 110.445,512 128,512L192,512C209.555,512 224,497.555 224,480L224,384L320,384L320,480C320,497.555 334.445,512 352,512L416,512C433.555,512 448,497.555 448,480L448,240L480,240C515.109,240 544,211.109 544,176L544,112C544,103.223 536.777,96 528,96ZM416,480L352,480L352,352L192,352L192,480L128,480L128,320C128.038,284.905 156.905,256.038 192,256L310.06,256L416,282.48L416,480ZM512,176C512,193.555 497.555,208 480,208L416,208L416,249.52L336,229.52L336,86.66L345.34,96L428.22,96L444.22,128L512,128L512,176ZM416,128C416,136.777 408.777,144 400,144C391.223,144 384,136.777 384,128C384,119.223 391.223,112 400,112C408.777,112 416,119.223 416,128Z" style="fill-rule:nonzero;"/>
                    </g>
                </g>
            </g>
            <g transform="matrix(0.0995032,0,0,0.0995032,221.081,175.306)">
                <g opacity="0.25">
                    <g transform="matrix(1,0,0,1,-320,-256)">
                        <path d="M638.59,368.22L605.22,156.63C596.36,106.37 556.82,65.86 504.56,53.5L504.49,53.5C383.163,24.862 256.817,24.862 135.49,53.5C83.17,65.86 43.64,106.36 34.78,156.63L1.41,368.22C-8.9,426.73 38.8,480 101.51,480C151.18,480 195.28,449.93 210.99,405.36L218.51,384L421.51,384L429,405.36C444.72,449.93 488.82,480 538.49,480C601.2,480 648.9,426.73 638.59,368.22ZM593.48,423.1C580.2,438.92 560.15,448 538.48,448C502.28,448 470.41,426.59 459.19,394.73L451.66,373.37L444.14,352L195.86,352L188.33,373.37L180.8,394.73C169.58,426.59 137.71,448 101.51,448C79.85,448 59.8,438.92 46.51,423.1C34.703,409.373 29.731,391.009 33,373.2L66.28,162.2C72.94,124.5 103,94.06 142.81,84.63C259.329,57.118 380.671,57.118 497.19,84.63C537.03,94.05 567.06,124.49 573.61,161.63L607.08,373.78C610.19,391.42 605.36,408.94 593.48,423.1ZM254.18,204.36L211.64,204.36L211.64,161.82C211.618,156.441 207.199,152.022 201.82,152L182.18,152C176.801,152.022 172.382,156.441 172.36,161.82L172.36,204.36L129.82,204.36C124.441,204.382 120.022,208.801 120,214.18L120,233.82C120.022,239.199 124.441,243.618 129.82,243.64L172.36,243.64L172.36,286.18C172.382,291.559 176.801,295.978 182.18,296L201.82,296C207.199,295.978 211.618,291.559 211.64,286.18L211.64,243.64L254.18,243.64C259.559,243.618 263.978,239.199 264,233.82L264,214.18C263.978,208.801 259.559,204.382 254.18,204.36ZM416,224C398.445,224 384,238.445 384,256C384,273.555 398.445,288 416,288C433.555,288 448,273.555 448,256C448,238.445 433.555,224 416,224ZM480,160C462.445,160 448,174.445 448,192C448,209.555 462.445,224 480,224C497.555,224 512,209.555 512,192C512,174.445 497.555,160 480,160Z" style="fill-rule:nonzero;"/>
                    </g>
                </g>
            </g>
            <g transform="matrix(0.0995032,0,0,0.0995032,134.44,108.841)">
                <g opacity="0.25">
                    <g transform="matrix(1,0,0,1,-256,-256)">
                        <path d="M456,416L415.01,416C454.22,386.81 480,340.52 480,288C480,199.78 408.22,128 320,128L320,64C320,46.33 305.67,32 288,32L288,16C288,7.16 280.84,0 272,0L176,0C167.16,0 160,7.16 160,16L160,32C142.33,32 128,46.33 128,64L128,288C128,305.67 142.33,320 160,320L160,368C160,376.84 167.16,384 176,384L272,384C280.84,384 288,376.84 288,368L288,320C305.67,320 320,305.67 320,288L320,160C390.59,160 448,217.42 448,288C448,358.58 390.59,416 320,416L56,416C25.12,416 0,441.12 0,472C0,494.06 17.94,512 40,512L472,512C494.06,512 512,494.06 512,472C512,441.12 486.88,416 456,416ZM256,352L192,352L192,320L256,320L256,352ZM288,288L160,288L160,64L192,64L192,32L256,32L256,64L288,64L288,288ZM472,480L40,480C35.58,480 32,476.42 32,472C32,458.74 42.75,448 56,448L456,448C469.25,448 480,458.74 480,472C480,476.42 476.42,480 472,480Z" style="fill-rule:nonzero;"/>
                    </g>
                </g>
            </g>
        </g>
    </g>
</svg>
