<?xml version="1.0" encoding="UTF-8" standalone="no"?>
<!DOCTYPE svg PUBLIC "-//W3C//DTD SVG 1.1//EN" "http://www.w3.org/Graphics/SVG/1.1/DTD/svg11.dtd">
<svg width="100%" height="100%" viewBox="0 0 1024 125" version="1.1" xmlns="http://www.w3.org/2000/svg" xmlns:xlink="http://www.w3.org/1999/xlink" xml:space="preserve" xmlns:serif="http://www.serif.com/" style="fill-rule:evenodd;clip-rule:evenodd;stroke-linecap:round;stroke-linejoin:round;stroke-miterlimit:1.5;">
    <g transform="matrix(1,0,0,1,0,-287.5)">
        <path
            d="M1024,395.962L992.506,395.962L992.506,373.943L987.098,368.534L948.869,368.534L946.117,371.287L946.117,398.509L921.49,398.509L921.49,393.033L912.842,393.033L912.842,398.377L903.494,398.377L893.656,405.129L893.656,385.955L888.162,380.461L882.029,386.594L868.506,386.594L868.506,373.565L849.465,373.565L849.465,370.105L842.781,370.105L842.781,374.239L823.785,374.239L821.698,372.152L818.699,372.152L816.606,374.245L808.501,374.245L808.501,382.66L805.746,382.66L801.548,378.462L801.548,363.19L789.241,363.19L789.241,360.123L777.222,360.123L777.222,363.263L771.853,363.263L767.867,367.248L767.867,402.683L752.161,397.36L751.543,384.271L749.257,397.32L744.113,397.689L744.113,367.386L739.196,353.399L739.196,342.553L707.957,342.553L701.516,379.775L694.955,386.336L694.955,404.527L679.858,404.527L679.858,412.466L670.447,412.466L670.447,409.706L664.996,409.706L664.996,391.327L655.957,391.327L653.769,389.14L648.811,389.14L648.811,379.831L648.811,389.14L646.549,391.402L638.552,391.402L638.552,402.306L623.796,402.236L623.796,360.565L626.033,360.117L626.033,337.664L598.514,337.664L598.514,399.946L575.394,399.946L575.394,389.223L568.366,382.194L551.776,382.194L551.776,364.748L550.189,354.591L550.302,349.886L546.18,335.169L546.493,322.764L543.507,296.441L542.332,322.064L526.77,321.394L525.922,312.552L523.392,295.951L521.683,347.339L518.859,347.828L518.403,357.473L516.286,366.065L516.47,400.68L516.286,400.5L506.348,400.5L506.348,371.773L501.566,358.508L495.063,347.266L477.915,346.922L470.475,359.359L470.475,342.86L444.553,342.86L444.553,334.761L438.083,334.761L435.923,336.92L429.068,336.92L426.869,332.257L417.952,332.257L417.952,308.955L416.339,332.266L416.339,388.18L397.65,388.18L397.65,339.524L392.191,339.524L392.191,331.906L386.592,331.906L386.592,327.034L381.467,321.909L367.077,321.909L359.549,329.437L359.549,346.793L356.175,346.793L356.175,337.865L315.955,337.865L315.955,397.331L310.428,397.331L310.428,383.76L298.594,383.76L298.594,321.934L285.454,321.934L285.454,311.184L278.966,311.184L278.966,287.5L275.092,287.5L275.092,311.763L259.929,311.763L257.838,313.854L257.838,321.309L247.894,321.309L247.894,366.469L237.172,366.469L237.172,350.849L231.62,350.849L231.62,345.477L210.643,345.477L210.643,350.845L206.315,350.845L206.315,366.108L178.235,366.108L178.235,387.523L146.641,387.523L146.641,394.434L129.373,394.434L126.126,391.187L119.984,391.187L119.984,381.646L117.901,381.646L117.901,370.779L115.735,369.401L115.711,354.208L115.735,369.401L110.372,369.401L110.372,380.069L107.328,380.069L107.328,390.161L81.952,390.161L81.952,403.389L64.242,403.389L64.242,377.722L40.879,377.722L40.879,400.5L0,400.5"
            style="fill:none;stroke:rgb(175,175,175);stroke-width:1px;"
            vector-effect="non-scaling-stroke"
        />
    </g>
</svg>
